<svg width="50" height="38" viewBox="0 0 50 38" fill="none" xmlns="http://www.w3.org/2000/svg">
<g filter="url(#filter0_dd)">
<path d="M4 15C4 6.72927 10.7293 0 19 0C27.2707 0 34 6.72927 34 15C34 19.3685 32.1215 23.3062 29.1313 26.0498L29.1455 26.0624L28.6589 26.4725C28.6273 26.4993 28.5929 26.5211 28.5613 26.5473C28.3027 26.7616 28.0349 26.9651 27.7622 27.162C27.6738 27.2258 27.5855 27.2896 27.4955 27.3518C27.2042 27.5525 26.9053 27.7429 26.5998 27.9235C26.5333 27.9627 26.4662 28.0009 26.3991 28.0391C26.0647 28.2295 25.7233 28.4089 25.3736 28.5736C25.348 28.5856 25.3218 28.5965 25.2962 28.6085C24.1567 29.1382 22.9404 29.5271 21.6684 29.7567C21.6351 29.7627 21.6018 29.7687 21.568 29.7747C21.1731 29.8429 20.7738 29.8975 20.3696 29.934C20.3205 29.9384 20.2715 29.9411 20.2218 29.9455C19.8193 29.9787 19.4124 30 19 30C18.5915 30 18.1884 29.9787 17.788 29.9465C17.7373 29.9422 17.6865 29.9395 17.6358 29.9351C17.2349 29.8985 16.8389 29.8456 16.4478 29.7785C16.414 29.7725 16.3796 29.7665 16.3458 29.76C15.0929 29.5353 13.894 29.1551 12.7693 28.6391C12.7278 28.62 12.6858 28.602 12.6444 28.5824C12.3078 28.4242 11.9789 28.2535 11.6565 28.0718C11.5764 28.0265 11.4967 27.9807 11.4171 27.9338C11.1236 27.7609 10.8351 27.5804 10.5547 27.3884C10.4538 27.3196 10.3551 27.2471 10.2553 27.1751C10.0158 27.0027 9.78073 26.8249 9.55218 26.6389C9.50145 26.598 9.44691 26.5625 9.39727 26.5205L8.89818 26.1038L8.91291 26.0913C5.89655 23.3465 4 19.3909 4 15ZM32.9091 15C32.9091 7.33036 26.6696 1.09091 19 1.09091C11.3304 1.09091 5.09091 7.33036 5.09091 15C5.09091 19.1329 6.90454 22.8485 9.77582 25.398C9.93618 25.2873 10.0976 25.188 10.2629 25.1051L14.8813 22.7962C15.2958 22.5889 15.5533 22.1722 15.5533 21.7091V20.0962C15.4464 19.9642 15.3335 19.8147 15.2167 19.6505C14.6189 18.8062 14.1395 17.8669 13.7898 16.8562C13.0987 16.5278 12.6525 15.8395 12.6525 15.0622V13.1285C12.6525 12.6556 12.826 12.1969 13.1364 11.8364V9.29073C13.108 9.00709 13.0076 7.41 14.1635 6.09218C15.1687 4.94455 16.7958 4.36364 19 4.36364C21.2042 4.36364 22.8313 4.94455 23.8365 6.09164C24.9924 7.40945 24.892 9.00764 24.8636 9.29018V11.8358C25.1735 12.1964 25.3475 12.6551 25.3475 13.128V15.0616C25.3475 15.6622 25.078 16.2224 24.6165 16.6004C24.1747 18.3311 23.2655 19.6413 22.9295 20.0853V21.6638C22.9295 22.1089 23.1722 22.518 23.5633 22.7318L27.8762 25.0844C28.0136 25.1591 28.15 25.2464 28.2864 25.344C31.1222 22.7956 32.9091 19.1029 32.9091 15Z" fill="white"/>
<path d="M45.3536 15.3536C45.5488 15.1583 45.5488 14.8417 45.3536 14.6464L42.1716 11.4645C41.9763 11.2692 41.6597 11.2692 41.4645 11.4645C41.2692 11.6597 41.2692 11.9763 41.4645 12.1716L44.2929 15L41.4645 17.8284C41.2692 18.0237 41.2692 18.3403 41.4645 18.5355C41.6597 18.7308 41.9763 18.7308 42.1716 18.5355L45.3536 15.3536ZM37 15.5L45 15.5L45 14.5L37 14.5L37 15.5Z" fill="white"/>
</g>
<defs>
<filter id="filter0_dd" x="0" y="0" width="49.5" height="38" filterUnits="userSpaceOnUse" color-interpolation-filters="sRGB">
<feFlood flood-opacity="0" result="BackgroundImageFix"/>
<feColorMatrix in="SourceAlpha" type="matrix" values="0 0 0 0 0 0 0 0 0 0 0 0 0 0 0 0 0 0 127 0"/>
<feOffset dy="4"/>
<feGaussianBlur stdDeviation="2"/>
<feColorMatrix type="matrix" values="0 0 0 0 0 0 0 0 0 0 0 0 0 0 0 0 0 0 0.25 0"/>
<feBlend mode="normal" in2="BackgroundImageFix" result="effect1_dropShadow"/>
<feColorMatrix in="SourceAlpha" type="matrix" values="0 0 0 0 0 0 0 0 0 0 0 0 0 0 0 0 0 0 127 0"/>
<feOffset dy="4"/>
<feGaussianBlur stdDeviation="2"/>
<feColorMatrix type="matrix" values="0 0 0 0 0 0 0 0 0 0 0 0 0 0 0 0 0 0 0.25 0"/>
<feBlend mode="normal" in2="effect1_dropShadow" result="effect2_dropShadow"/>
<feBlend mode="normal" in="SourceGraphic" in2="effect2_dropShadow" result="shape"/>
</filter>
</defs>
</svg>
